Coordinates
version=1
nRows=49
nColumns=12
inDegrees=yes

Units are S.I. units (second, meters, Newtons, ...)
Angles are in degrees

endheader
time	SC_y	SC_z	SC_x	AC_y	AC_z	AC_x	GH_y	GH_z	GH_yy	EL_x	PS_y
       0.0              -38.62          22.99          32.14          35.99          5.233          11.82          14.67         -6.702          170.6           6.05          92.04
     0.026              -38.63          22.99          32.13          35.99          5.233          11.81          14.65         -6.691          170.6          6.068          92.04
   0.05199              -38.63          22.99          32.13           36.0          5.233          11.81          14.63          -6.68          170.6          6.087          92.05
   0.07799              -38.63          22.99          32.13           36.0          5.233          11.81           14.6         -6.668          170.6          6.108          92.05
     0.104              -38.63          22.99          32.13           36.0          5.233          11.81          14.57         -6.656          170.5           6.13          92.05
      0.13              -38.64          22.99          32.12           36.0          5.233          11.81          14.54         -6.642          170.5          6.153          92.05
     0.156              -38.64          22.99          32.12           36.0          5.234          11.81          14.51         -6.628          170.5          6.178          92.05
     0.182              -38.64          22.98          32.12          36.01          5.234          11.81          14.48         -6.613          170.4          6.205          92.06
     0.208              -38.65          22.98          32.11          36.01          5.234           11.8          14.44         -6.596          170.4          6.234          92.06
     0.234              -38.65          22.98          32.11          36.01          5.234           11.8           14.4         -6.579          170.3          6.264          92.06
      0.26              -38.66          22.98          32.11          36.01          5.235           11.8          14.36          -6.56          170.3          6.297          92.06
    0.2859              -38.66          22.98           32.1          36.02          5.235           11.8          14.32         -6.539          170.2          6.333          92.06
    0.3119              -38.67          22.97           32.1          36.02          5.235          11.79          14.27         -6.517          170.2          6.371          92.07
    0.3379              -38.67          22.97          32.09          36.02          5.235          11.79          14.21         -6.494          170.1          6.412          92.07
    0.3639              -38.68          22.97          32.09          36.03          5.236          11.79          14.16         -6.468          170.0          6.457          92.07
    0.3899              -38.69          22.96          32.08          36.03          5.236          11.79           14.1          -6.44          170.0          6.506          92.08
    0.4159              -38.69          22.96          32.07          36.04          5.237          11.78          14.03          -6.41          169.9          6.558          92.08
    0.4419               -38.7          22.96          32.07          36.04          5.237          11.78          13.96         -6.377          169.8          6.616          92.09
    0.4679              -38.71          22.95          32.06          36.05          5.237          11.77          13.88         -6.341          169.7          6.679          92.09
    0.4939              -38.72          22.95          32.05          36.05          5.238          11.77          13.79         -6.301          169.6          6.747           92.1
    0.5199              -38.73          22.94          32.04          36.06          5.239          11.77          13.69         -6.258          169.5          6.823           92.1
    0.5459              -38.74          22.94          32.03          36.07          5.239          11.76          13.59          -6.21          169.4          6.906          92.11
    0.5719              -38.76          22.93          32.02          36.07           5.24          11.75          13.47         -6.157          169.3          6.997          92.12
    0.5979              -38.77          22.93          32.01          36.08          5.241          11.75          13.34         -6.099          169.1          7.099          92.12
    0.6239              -38.79          22.92           32.0          36.09          5.241          11.74           13.2         -6.034          168.9          7.212          92.13
    0.6499              -38.81          22.91          31.98           36.1          5.242          11.73          13.04         -5.962          168.8          7.338          92.14
    0.6759              -38.83           22.9          31.96          36.11          5.244          11.72          12.86         -5.881          168.6          7.479          92.15
    0.7019              -38.85          22.89          31.95          36.13          5.245          11.71          12.66          -5.79          168.3          7.637          92.16
    0.7279              -38.87          22.88          31.92          36.14          5.246           11.7          12.44         -5.686          168.1          7.817          92.18
    0.7539               -38.9          22.87           31.9          36.16          5.248          11.69          12.18         -5.569          167.8           8.02          92.19
    0.7799              -38.94          22.85          31.87          36.18          5.249          11.67          11.88         -5.436          167.4          8.253          92.21
    0.8058              -38.97          22.83          31.84           36.2          5.251          11.66          11.54         -5.283          167.0           8.52          92.23
    0.8318              -39.02          22.81           31.8          36.23          5.254          11.64          11.15         -5.106          166.6          8.827          92.25
    0.8578              -39.07          22.79          31.76          36.26          5.256          11.61           10.7           -4.9          166.1          9.185          92.28
    0.8838              -39.13          22.76          31.71           36.3           5.26          11.58          10.17         -4.659          165.5          9.604          92.31
    0.9098               -39.2          22.73          31.65          36.34          5.263          11.55          9.545         -4.376          164.7           10.1          92.35
    0.9358              -39.28          22.69          31.58          36.39          5.268          11.51          8.802         -4.039          163.9          10.68           92.4
    0.9618              -39.38          22.65           31.5          36.45          5.273          11.47          7.911         -3.635          162.9          11.39          92.45
    0.9878               -39.5          22.59          31.39          36.52           5.28          11.41          6.833         -3.146          161.6          12.24          92.51
     1.014              -39.65          22.53          31.27          36.61          5.287          11.35          5.517         -2.549          160.1          13.28          92.59
      1.04              -39.84          22.44          31.12          36.72          5.297          11.26          3.892         -1.812          158.2          14.56          92.69
     1.066              -40.06          22.34          30.92          36.85          5.309          11.16          1.865        -0.8926          155.9          16.16          92.81
     1.092              -40.35          22.21          30.68          37.03          5.324          11.03        -0.6874         0.2651          153.0          18.17          92.97
     1.118              -40.72          22.04          30.38          37.24          5.344          10.86         -3.932          1.737          149.2          20.73          93.16
     1.144              -41.18          21.83          29.98          37.52          5.369          10.65         -8.086          3.621          144.5          24.01          93.41
      1.17              -41.78          21.56          29.48          37.88          5.401          10.38         -13.42          6.038          138.3          28.22          93.73
     1.196              -42.55          21.21          28.84          38.34          5.441          10.03         -20.22          9.126          130.5          33.59          94.14
     1.222              -43.51          20.78          28.03          38.91          5.492          9.588         -28.78          13.01          120.6          40.35          94.65
     1.248              -44.69          20.25          27.04          39.61          5.555          9.053         -39.22          17.74          108.6          48.58          95.28
